<?xml version="1.0" encoding="UTF-8"?>
<!DOCTYPE svg  PUBLIC '-//W3C//DTD SVG 1.0//EN'  'http://www.w3.org/TR/2001/REC-SVG-20010904/DTD/svg10.dtd'>
<svg width="558.65mm" height="221.71mm" clip-rule="evenodd" fill-rule="evenodd" image-rendering="optimizeQuality" shape-rendering="geometricPrecision" text-rendering="geometricPrecision" version="1.0" viewBox="0 0 34560 13716" xml:space="preserve" xmlns="http://www.w3.org/2000/svg">
 <defs>
  <style type="text/css">
   <![CDATA[
    .fil1 {fill:none}
    .fil0 {fill:#2B2A29}
   ]]>
  </style>
 </defs>
    <path class="fil0" d="m14530 1913c0 106-1 234-2 379 347 410 1347 997 1520 1120 1168 835 1978 1673 3278 2404 438 247 802 415 1239 692 904 575 3016 2193 3997 1127 184-200 370-473 572-697 1918-2133 4894-3716 7207-5410 256-187 804-579 1026-901-3-8-6-16-9-24-943-334-9999 625-11520 751-1143 95-2099 155-3251 138-612-8-3413-54-4058 399 1 7 1 14 1 22zm-7 1096c-15 2788 38 8635 1252 9419 180 116 1096 12 1343-4 4822-314 9727-1425 14525-1475 813-9 1586 19 2387 89-19-2427-127-4995-294-7407-36-517-107-1594-229-2363-259 259-574 476-858 683-2486 1821-5638 3430-7562 5869-514 651-1127 819-1925 637-1237-281-2564-1390-3739-1994-1416-728-2233-1536-3460-2462-463-350-1e3 -632-1440-992zm19276-2680c114 52 177 179 145 304-6 17-13 33-20 49 204 779 284 2206 318 2684 178 2445 285 5054 311 7508 5 492 68 252-292 711-976-97-1902-127-2883-108-4606 90-9309 1120-13935 1450-403 29-1488 153-1826 7-1741-751-1645-7912-1615-10505-256-460-101-889 606-1145 1349-488 4092-247 5664-340 2664-156 5386-478 8055-703 725-61 4928-493 5392-28 28 28 54 68 80 116z"/>
   <path class="fil1" d="m14268 1913c0 1535-273 10904 1719 10831 6083-222 12856-1999 18301-1419 44 5-202-10418-747-10919-636-586-11578 834-14193 834-1481 0-7911-339-3904 2086 1207 730 2342 2046 4278 2994 1323 648 3905 3042 5154 1345 2164-2940 8524-5968 8815-7097"/>
    <path class="fil0" d="m9799 6095c-3113-286-4653-176-7738 503-581 128-1161 259-1742 389-141 31-281-58-313-199-31-141 58-281 199-313 581-129 1162-261 1744-389 3137-690 4732-803 7899-512 144 13 250 141 236 285-13 144-141 250-285 236z"/>
   <path class="fil1" d="m9824 5834c-4177-391-5445-20-9562 897"/>
    <path class="fil0" d="m11072 8917c-2138-792-4013 46-6167 167-145 7-267-106-273-250-7-144 105-267 250-273 2285-128 4059-992 6383-131 134 53 200 205 147 340-53 134-206 200-340 147z"/>
   <path class="fil1" d="m11168 8673c-2129-843-4296 63-6275 150"/>
    <path class="fil0" d="m11915 11325c-4493 7-6057 434-10145 2275l-205 93c-132 59-287 1-346-131-60-132-2-287 130-347l206-93c4155-1871 5791-2314 10360-2320 145 0 262 117 262 262 0 144-117 261-262 261z"/>
   <path class="fil1" d="m11915 11064c-4548 0-6024 383-10458 2390"/>
</svg>
